<?xml version="1.0" standalone="no"?>
<!DOCTYPE svg PUBLIC "-//W3C//DTD SVG 20010904//EN"
 "http://www.w3.org/TR/2001/REC-SVG-20010904/DTD/svg10.dtd">
<svg version="1.0" xmlns="http://www.w3.org/2000/svg"
 width="225.000000pt" height="225.000000pt" viewBox="0 0 225.000000 225.000000"
 preserveAspectRatio="xMidYMid meet">

<g transform="translate(0.000000,225.000000) scale(0.100000,-0.100000)"
fill="#000000" stroke="none">
<path d="M317 2149 c-91 -22 -160 -79 -199 -164 l-23 -50 0 -485 0 -485 23
-47 c13 -25 45 -66 71 -91 60 -56 124 -77 234 -77 74 0 80 2 108 29 20 21 29
39 29 63 0 69 -49 98 -163 98 -51 0 -62 4 -88 30 l-30 29 3 460 3 460 23 23
23 23 460 3 460 3 29 -30 c27 -27 30 -36 30 -96 0 -74 18 -128 48 -144 34 -18
79 -13 109 13 27 24 28 27 28 128 0 84 -4 112 -21 149 -27 57 -85 115 -144
143 -44 20 -60 21 -510 23 -256 1 -482 -3 -503 -8z"/>
<path d="M969 1493 c-82 -13 -185 -113 -209 -204 -7 -26 -10 -203 -8 -517 3
-472 3 -477 25 -519 30 -55 84 -107 142 -135 46 -23 47 -23 526 -23 448 0 483
1 529 19 66 25 128 84 157 149 l24 52 0 485 0 485 -23 47 c-13 26 -45 67 -72
92 -81 76 -86 76 -609 75 -251 -1 -468 -4 -482 -6z m972 -212 l29 -29 0 -446
c0 -259 -4 -455 -10 -470 -21 -55 -30 -56 -515 -56 l-447 0 -29 29 -29 29 0
460 0 459 26 27 27 26 459 0 460 0 29 -29z"/>
</g>
</svg>
