<svg version="1.1" stroke="white" xmlns="http://www.w3.org/2000/svg" x="0px" y="0px" viewBox="0 0 1000 1000" enable-background="new 0 0 1000 1000" xml:space="preserve">
<path fill="gray" d="M484.5,809.5L149.3,463.9l85.1-69.6L427.8,549c79.9-95.4,255.3-286.3,497.7-435.8l20.6,49C724.4,368.5,543.8,659.9,484.5,809.5L484.5,809.5L484.5,809.5z M907.5,432.9c2.6,20.6,5.2,43.8,5.2,67.1c0,226.9-185.7,412.6-412.6,412.6C273.1,912.6,87.4,726.9,87.4,500C87.4,273.1,273.1,87.4,500,87.4c54.2,0,108.3,10.3,154.7,30.9V35.8C605.7,20.3,551.6,10,500,10c-67.1,0-131.5,12.9-190.8,38.7S198.3,108,154.4,154.4c-43.8,43.8-79.9,98-105.7,154.7C22.9,368.5,10,432.9,10,500c0,67.1,12.9,131.5,38.7,190.8c25.8,59.3,59.3,110.9,105.7,154.7c43.8,43.8,98,79.9,154.7,105.7C368.5,977.1,432.9,990,500,990c67.1,0,131.5-12.9,190.8-38.7c59.3-25.8,110.9-59.3,154.7-105.7c43.8-43.8,79.9-98,105.7-154.7C977.1,631.5,990,567.1,990,500c0-23.2-2.6-43.8-5.2-67.1H907.5L907.5,432.9z"/>
</svg>